<?xml version="1.0" encoding="UTF-8"?>
<svg viewBox="0 0 300.17163 212.62157" xmlns="http://www.w3.org/2000/svg">
 <defs>
  <filter id="a">
   <feGaussianBlur stdDeviation="2.5049"/>
  </filter>
 </defs>
 <g transform="translate(-564.2 -614.62)">
  <path d="m587.43 614.62h253.72a23.228 23.228 0 0 1 23.228 23.228v166.17a23.228 23.228 0 0 1 -23.228 23.228h-253.72a23.228 23.228 0 0 1 -23.228 -23.228v-166.17a23.228 23.228 0 0 1 23.228 -23.228" fill="#265077"/>
  <g transform="matrix(.66226 0 0 .66226 888.4 -324.52)" filter="url(#a)">
   <path transform="matrix(.33329 0 0 .33329 132.98 1026)" d="m-1104.6 1346.2c0 42.072-31.67 76.178-70.736 76.178s-70.736-34.106-70.736-76.178 31.67-76.178 70.736-76.178 70.736 34.106 70.736 76.178z"/>
   <path d="m-271.17 1586.7a9.9744 9.9744 0 0 1 9.9744 9.9744v103.37a9.9744 9.9744 0 0 1 -9.9744 9.9744 9.9744 9.9744 0 0 1 -9.9744 -9.9744v-103.37a9.9744 9.9744 0 0 1 9.9744 -9.9744"/>
   <path d="m-245.17 1586.7a9.9744 9.9744 0 0 1 9.9744 9.9744v103.37a9.9744 9.9744 0 0 1 -9.9744 9.9744 9.9744 9.9744 0 0 1 -9.9744 -9.9744v-103.37a9.9744 9.9744 0 0 1 9.9744 -9.9744"/>
   <path d="m-237.47 1503.3v68.656h-39.75v-68.281c-12.813 0.6727-22.453 1.9572-22.25 3.9688 0.6169 6.1087 4.7819 7.5672 4.6875 15.781 7.55 18.593 4.9343 68.846-0.59375 74.656h-0.28125l0.15625 0.1563-0.15625 0.1562h0.28125l34.281 35.062 3-3.0625 3 3.0625 34.25-35.062h0.28125l-0.125-0.1562 0.125-0.1563h-0.28125c-6.8366-13.584-5.6239-55.846-2.6875-73.312 0.96926-10.184 5.493-14.841 9.2812-18.719 1.3474-1.3791-9.1912-2.3472-23.219-2.75z"/>
   <path d="m-218.72 1504.3c-0.23872 0.013-0.48707 0.03-0.729 0.063-3.8728 0.5188-6.5701 4.0534-6.0513 7.9262 0.85215 13.313 5.3601 28.203 4.9472 41.182l-0.84367 33.131c-0.0835 3.257 2.4708 5.9253 5.7285 5.9784l2.9476 0.041c3.2576 0.053 5.9474-2.5235 6.0304-5.7805l0.84367-33.131c-1.6175-14.192-3.746-28.894-5.6764-43.297-0.4863-3.6307-3.6156-6.2304-7.197-6.1137z"/>
   <path transform="matrix(.83295,.55335,.55335,-.83295,0,0)" d="m590.58-1471.3a7.053 7.053 0 0 1 7.053 7.053v39.753a7.053 7.053 0 0 1 -7.053 7.053 7.053 7.053 0 0 1 -7.053 -7.053v-39.753a7.053 7.053 0 0 1 7.053 -7.053"/>
   <path transform="matrix(-.87758,.47943,-.47943,-.87758,0,0)" d="m1020.9-1211.2a7.053 7.053 0 0 1 7.053 7.053v39.753a7.053 7.053 0 0 1 -7.053 7.053 7.053 7.053 0 0 1 -7.053 -7.053v-39.753a7.053 7.053 0 0 1 7.053 -7.053"/>
   <path d="m-338.82 1483.9c-13.91 0-25.23 9.4122-25.632 21.154h51.275c-0.4018-11.741-11.732-21.154-25.643-21.154z"/>
   <path d="m-339.92 1479.4c-2.5263 0-4.5821 3.1359-4.6551 7.0477h9.3121c-0.0732-3.9118-2.1307-7.0477-4.657-7.0477z"/>
   <path d="m-270.46 1499.5v12.073l11.722-4.2004 11.726 4.2004v-12.073l-11.726 4.2035-11.722-4.2035z"/>
   <path transform="matrix(.33329 0 0 .33329 314.27 1049.7)" d="m-1711.5 1400.4c0 4.2483-3.444 7.6923-7.6923 7.6923s-7.6923-3.444-7.6923-7.6923 3.4439-7.6923 7.6923-7.6923 7.6923 3.4439 7.6923 7.6923z"/>
   <path transform="matrix(.33329 0 0 .33329 314.27 1070.4)" d="m-1711.5 1400.4c0 4.2483-3.444 7.6923-7.6923 7.6923s-7.6923-3.444-7.6923-7.6923 3.4439-7.6923 7.6923-7.6923 7.6923 3.4439 7.6923 7.6923z"/>
   <path transform="matrix(.33329 0 0 .33329 314.27 1091.1)" d="m-1711.5 1400.4c0 4.2483-3.444 7.6923-7.6923 7.6923s-7.6923-3.444-7.6923-7.6923 3.4439-7.6923 7.6923-7.6923 7.6923 3.4439 7.6923 7.6923z"/>
   <path transform="matrix(.19604 0 0 .25955 -181.73 1164.8)" d="m-642.54 1311.1c0 4.7811-71.058 8.657-158.71 8.657s-158.71-3.8759-158.71-8.657 71.058-8.657 158.71-8.657 158.71 3.8758 158.71 8.657z"/>
  </g>
  <g transform="matrix(.66226 0 0 .66226 887.08 -325.84)" fill="#fff">
   <path transform="matrix(.33329 0 0 .33329 132.98 1026)" d="m-1104.6 1346.2c0 42.072-31.67 76.178-70.736 76.178s-70.736-34.106-70.736-76.178 31.67-76.178 70.736-76.178 70.736 34.106 70.736 76.178z"/>
   <path d="m-271.17 1586.7a9.9744 9.9744 0 0 1 9.9744 9.9744v103.37a9.9744 9.9744 0 0 1 -9.9744 9.9744 9.9744 9.9744 0 0 1 -9.9744 -9.9744v-103.37a9.9744 9.9744 0 0 1 9.9744 -9.9744"/>
   <path d="m-245.17 1586.7a9.9744 9.9744 0 0 1 9.9744 9.9744v103.37a9.9744 9.9744 0 0 1 -9.9744 9.9744 9.9744 9.9744 0 0 1 -9.9744 -9.9744v-103.37a9.9744 9.9744 0 0 1 9.9744 -9.9744"/>
   <path d="m-237.47 1503.3v68.656h-39.75v-68.281c-12.813 0.6727-22.453 1.9572-22.25 3.9688 0.6169 6.1087 4.7819 7.5672 4.6875 15.781 7.55 18.593 4.9343 68.846-0.59375 74.656h-0.28125l0.15625 0.1563-0.15625 0.1562h0.28125l34.281 35.062 3-3.0625 3 3.0625 34.25-35.062h0.28125l-0.125-0.1562 0.125-0.1563h-0.28125c-6.8366-13.584-5.6239-55.846-2.6875-73.312 0.96926-10.184 5.493-14.841 9.2812-18.719 1.3474-1.3791-9.1912-2.3472-23.219-2.75z"/>
   <path d="m-218.72 1504.3c-0.23872 0.013-0.48707 0.03-0.729 0.063-3.8728 0.5188-6.5701 4.0534-6.0513 7.9262 0.85215 13.313 5.3601 28.203 4.9472 41.182l-0.84367 33.131c-0.0835 3.257 2.4708 5.9253 5.7285 5.9784l2.9476 0.041c3.2576 0.053 5.9474-2.5235 6.0304-5.7805l0.84367-33.131c-1.6175-14.192-3.746-28.894-5.6764-43.297-0.4863-3.6307-3.6156-6.2304-7.197-6.1137z"/>
   <path transform="matrix(.83295,.55335,.55335,-.83295,0,0)" d="m590.58-1471.3a7.053 7.053 0 0 1 7.053 7.053v39.753a7.053 7.053 0 0 1 -7.053 7.053 7.053 7.053 0 0 1 -7.053 -7.053v-39.753a7.053 7.053 0 0 1 7.053 -7.053"/>
   <path transform="matrix(-.87758,.47943,-.47943,-.87758,0,0)" d="m1020.9-1211.2a7.053 7.053 0 0 1 7.053 7.053v39.753a7.053 7.053 0 0 1 -7.053 7.053 7.053 7.053 0 0 1 -7.053 -7.053v-39.753a7.053 7.053 0 0 1 7.053 -7.053"/>
   <path d="m-338.82 1483.9c-13.91 0-25.23 9.4122-25.632 21.154h51.275c-0.4018-11.741-11.732-21.154-25.643-21.154z"/>
   <path d="m-339.92 1479.4c-2.5263 0-4.5821 3.1359-4.6551 7.0477h9.3121c-0.0732-3.9118-2.1307-7.0477-4.657-7.0477z"/>
   <path d="m-270.46 1499.5v12.073l11.722-4.2004 11.726 4.2004v-12.073l-11.726 4.2035-11.722-4.2035z"/>
   <path transform="matrix(.33329 0 0 .33329 314.27 1049.7)" d="m-1711.5 1400.4c0 4.2483-3.444 7.6923-7.6923 7.6923s-7.6923-3.444-7.6923-7.6923 3.4439-7.6923 7.6923-7.6923 7.6923 3.4439 7.6923 7.6923z"/>
   <path transform="matrix(.33329 0 0 .33329 314.27 1070.4)" d="m-1711.5 1400.4c0 4.2483-3.444 7.6923-7.6923 7.6923s-7.6923-3.444-7.6923-7.6923 3.4439-7.6923 7.6923-7.6923 7.6923 3.4439 7.6923 7.6923z"/>
   <path transform="matrix(.33329 0 0 .33329 314.27 1091.1)" d="m-1711.5 1400.4c0 4.2483-3.444 7.6923-7.6923 7.6923s-7.6923-3.444-7.6923-7.6923 3.4439-7.6923 7.6923-7.6923 7.6923 3.4439 7.6923 7.6923z"/>
   <path transform="matrix(.19604 0 0 .25955 -181.73 1164.8)" d="m-642.54 1311.1c0 4.7811-71.058 8.657-158.71 8.657s-158.71-3.8759-158.71-8.657 71.058-8.657 158.71-8.657 158.71 3.8758 158.71 8.657z"/>
  </g>
 </g>
</svg>
