<?xml version="1.0" encoding="UTF-8"?>
<svg viewBox="0 0 933.82001 926.75616" xmlns="http://www.w3.org/2000/svg">
 <g fill="#808080">
  <g transform="translate(647.51 -230.07)">
   <path transform="translate(-451.15 100.98)" d="m354.29 212.36c0 42.605-34.538 77.143-77.143 77.143s-77.143-34.538-77.143-77.143 34.538-77.143 77.143-77.143 77.143 34.538 77.143 77.143z"/>
   <path d="m-174.02 395.44c-93.998 0-171.33 71.224-181 162.66h34.812c9.4866-72.294 71.301-128.09 146.19-128.09s136.73 55.8 146.22 128.09h34.812c-9.6717-91.433-87.034-162.66-181.03-162.66z"/>
   <path transform="translate(24.511 -166.98)" d="m-198.53 560.25c-59.204 0-107.19 85.749-107.19 191.5 0 3.2344 0.0706 6.4335 0.15625 9.625 21.553-36.703 61.391-61.344 107.03-61.344 45.63 0 85.507 24.622 107.06 61.312 0.08505-3.181 0.125-6.37 0.125-9.5938 0-105.75-47.983-191.5-107.19-191.5z"/>
  </g>
  <g transform="matrix(-1 0 0 -1 299.5 1163)">
   <path transform="translate(-451.15 100.98)" d="m354.29 212.36c0 42.605-34.538 77.143-77.143 77.143s-77.143-34.538-77.143-77.143 34.538-77.143 77.143-77.143 77.143 34.538 77.143 77.143z"/>
   <path d="m-174.02 395.44c-93.998 0-171.33 71.224-181 162.66h34.812c9.4866-72.294 71.301-128.09 146.19-128.09s136.73 55.8 146.22 128.09h34.812c-9.6717-91.433-87.034-162.66-181.03-162.66z"/>
   <path transform="translate(24.511 -166.98)" d="m-198.53 560.25c-59.204 0-107.19 85.749-107.19 191.5 0 3.2344 0.0706 6.4335 0.15625 9.625 21.553-36.703 61.391-61.344 107.03-61.344 45.63 0 85.507 24.622 107.06 61.312 0.08505-3.181 0.125-6.37 0.125-9.5938 0-105.75-47.983-191.5-107.19-191.5z"/>
  </g>
  <g transform="matrix(0 1 -1 0 1170 640.45)">
   <path transform="translate(-451.15 100.98)" d="m354.29 212.36c0 42.605-34.538 77.143-77.143 77.143s-77.143-34.538-77.143-77.143 34.538-77.143 77.143-77.143 77.143 34.538 77.143 77.143z"/>
   <path d="m-174.02 395.44c-93.998 0-171.33 71.224-181 162.66h34.812c9.4866-72.294 71.301-128.09 146.19-128.09s136.73 55.8 146.22 128.09h34.812c-9.6717-91.433-87.034-162.66-181.03-162.66z"/>
   <path transform="translate(24.511 -166.98)" d="m-198.53 560.25c-59.204 0-107.19 85.749-107.19 191.5 0 3.2344 0.0706 6.4335 0.15625 9.625 21.553-36.703 61.391-61.344 107.03-61.344 45.63 0 85.507 24.622 107.06 61.312 0.08505-3.181 0.125-6.37 0.125-9.5938 0-105.75-47.983-191.5-107.19-191.5z"/>
  </g>
  <g transform="matrix(0 -1 1 0 -223.01 292.43)">
   <path transform="translate(-451.15 100.98)" d="m354.29 212.36c0 42.605-34.538 77.143-77.143 77.143s-77.143-34.538-77.143-77.143 34.538-77.143 77.143-77.143 77.143 34.538 77.143 77.143z"/>
   <path d="m-174.02 395.44c-93.998 0-171.33 71.224-181 162.66h34.812c9.4866-72.294 71.301-128.09 146.19-128.09s136.73 55.8 146.22 128.09h34.812c-9.6717-91.433-87.034-162.66-181.03-162.66z"/>
   <path transform="translate(24.511 -166.98)" d="m-198.53 560.25c-59.204 0-107.19 85.749-107.19 191.5 0 3.2344 0.0706 6.4335 0.15625 9.625 21.553-36.703 61.391-61.344 107.03-61.344 45.63 0 85.507 24.622 107.06 61.312 0.08505-3.181 0.125-6.37 0.125-9.5938 0-105.75-47.983-191.5-107.19-191.5z"/>
  </g>
 </g>
 <g transform="translate(634.32 -236.2)" fill="#d44117">
  <path transform="translate(-451.15 100.98)" d="m354.29 212.36c0 42.605-34.538 77.143-77.143 77.143s-77.143-34.538-77.143-77.143 34.538-77.143 77.143-77.143 77.143 34.538 77.143 77.143z"/>
  <path d="m-174.02 395.44c-93.998 0-171.33 71.224-181 162.66h34.812c9.4866-72.294 71.301-128.09 146.19-128.09s136.73 55.8 146.22 128.09h34.812c-9.6717-91.433-87.034-162.66-181.03-162.66z"/>
  <path transform="translate(24.511 -166.98)" d="m-198.53 560.25c-59.204 0-107.19 85.749-107.19 191.5 0 3.2344 0.0706 6.4335 0.15625 9.625 21.553-36.703 61.391-61.344 107.03-61.344 45.63 0 85.507 24.622 107.06 61.312 0.08505-3.181 0.125-6.37 0.125-9.5938 0-105.75-47.983-191.5-107.19-191.5z"/>
 </g>
 <g transform="matrix(-1 0 0 -1 286.31 1156.8)" fill="#6bb427">
  <path transform="translate(-451.15 100.98)" d="m354.29 212.36c0 42.605-34.538 77.143-77.143 77.143s-77.143-34.538-77.143-77.143 34.538-77.143 77.143-77.143 77.143 34.538 77.143 77.143z"/>
  <path d="m-174.02 395.44c-93.998 0-171.33 71.224-181 162.66h34.812c9.4866-72.294 71.301-128.09 146.19-128.09s136.73 55.8 146.22 128.09h34.812c-9.6717-91.433-87.034-162.66-181.03-162.66z"/>
  <path transform="translate(24.511 -166.98)" d="m-198.53 560.25c-59.204 0-107.19 85.749-107.19 191.5 0 3.2344 0.0706 6.4335 0.15625 9.625 21.553-36.703 61.391-61.344 107.03-61.344 45.63 0 85.507 24.622 107.06 61.312 0.08505-3.181 0.125-6.37 0.125-9.5938 0-105.75-47.983-191.5-107.19-191.5z"/>
 </g>
 <g transform="matrix(0 1 -1 0 1156.8 634.32)" fill="#f2a438">
  <path transform="translate(-451.15 100.98)" d="m354.29 212.36c0 42.605-34.538 77.143-77.143 77.143s-77.143-34.538-77.143-77.143 34.538-77.143 77.143-77.143 77.143 34.538 77.143 77.143z"/>
  <path d="m-174.02 395.44c-93.998 0-171.33 71.224-181 162.66h34.812c9.4866-72.294 71.301-128.09 146.19-128.09s136.73 55.8 146.22 128.09h34.812c-9.6717-91.433-87.034-162.66-181.03-162.66z"/>
  <path transform="translate(24.511 -166.98)" d="m-198.53 560.25c-59.204 0-107.19 85.749-107.19 191.5 0 3.2344 0.0706 6.4335 0.15625 9.625 21.553-36.703 61.391-61.344 107.03-61.344 45.63 0 85.507 24.622 107.06 61.312 0.08505-3.181 0.125-6.37 0.125-9.5938 0-105.75-47.983-191.5-107.19-191.5z"/>
 </g>
 <g transform="matrix(0 -1 1 0 -236.2 286.31)" fill="#5775b1">
  <path transform="translate(-451.15 100.98)" d="m354.29 212.36c0 42.605-34.538 77.143-77.143 77.143s-77.143-34.538-77.143-77.143 34.538-77.143 77.143-77.143 77.143 34.538 77.143 77.143z"/>
  <path d="m-174.02 395.44c-93.998 0-171.33 71.224-181 162.66h34.812c9.4866-72.294 71.301-128.09 146.19-128.09s136.73 55.8 146.22 128.09h34.812c-9.6717-91.433-87.034-162.66-181.03-162.66z"/>
  <path transform="translate(24.511 -166.98)" d="m-198.53 560.25c-59.204 0-107.19 85.749-107.19 191.5 0 3.2344 0.0706 6.4335 0.15625 9.625 21.553-36.703 61.391-61.344 107.03-61.344 45.63 0 85.507 24.622 107.06 61.312 0.08505-3.181 0.125-6.37 0.125-9.5938 0-105.75-47.983-191.5-107.19-191.5z"/>
 </g>
</svg>
