<svg xmlns="http://www.w3.org/2000/svg" xmlns:xlink="http://www.w3.org/1999/xlink" viewBox="0 0 53.125 85" fill="#fff" fill-rule="evenodd" stroke="#000" stroke-linecap="round" stroke-linejoin="round"><use xlink:href="#A" x="1.563" y="2.5"/><symbol id="A" overflow="visible"><g stroke="none"><path d="M17.07 42.428s-2.533 1.283 1.762 1.65c5.176.55 7.93.458 13.656-.458 0 0 1.542.825 3.634 1.466-12.885 4.582-29.185-.275-19.053-2.658h0zm-1.652-5.956s-2.753 1.74 1.542 2.108c5.617.458 10.022.55 17.62-.733 0 0 .99.916 2.643 1.375-15.53 3.85-32.93.367-21.806-2.75h0zm30.396 10.447s1.872 1.283-2.093 2.29c-7.38 1.833-30.947 2.383-37.555 0-2.313-.825 2.093-2.016 3.524-2.2 1.432-.275 2.203-.275 2.203-.275-2.533-1.466-16.85 3.024-7.27 4.307 26.322 3.574 48.018-1.558 41.19-4.124h0zM18.282 30.24s-12.004 2.383-4.295 3.207c3.304.367 9.802.275 15.86-.092 4.956-.367 9.912-1.1 9.912-1.1s-1.762.642-2.974 1.283C24.56 36.197 1.102 35.005 7.82 32.256c5.727-2.29 10.463-2.016 10.463-2.016h0zm21.476 9.99c12.335-5.315 6.608-10.447 2.643-9.805-.99.183-1.432.366-1.432.366s.33-.55 1.1-.733c7.82-2.29 13.987 6.873-2.533 10.447 0 0 .1-.092.22-.275h0zm-20.264 14.48c11.894.642 30.066-.367 30.506-5.04 0 0-.88 1.833-9.802 3.207-10.132 1.558-22.687 1.375-30.066.367 0 0 1.542 1.1 9.36 1.466h0z" fill="#4e7896"/><path d="M32.27 0s6.828 5.773-6.498 14.48c-10.683 7.056-2.423 11.088 0 15.67-6.277-4.674-10.793-8.797-7.71-12.646C22.577 11.82 35.022 9.072 32.27 0h0zm-3.524 26.3c3.194 3.024-.88 5.773-.88 5.773s8.15-3.482 4.405-7.79c-3.414-4.124-6.057-6.14 8.26-13.013 0 0-22.577 4.674-11.784 15.03h0zm-8.15 49.2v-8.98c0-2.29-1.542-3.85-5.396-3.85-2.203 0-4.075.458-5.727 1.008l.55 1.65c1.21-.367 2.753-.733 4.405-.733 2.093 0 3.084.733 3.084 2.2v1.19h-1.1c-5.286 0-7.71 1.65-7.71 4.307 0 2.2 1.652 3.482 4.626 3.482 1.872 0 3.304-.733 4.626-1.65l.22 1.375h2.423zm-3.084-2.933c-1.1.825-2.313 1.283-3.414 1.283-1.432 0-2.313-.733-2.313-2.016s.88-2.2 4.405-2.2h1.322v2.932zM30.947 75.5h-3.855l-4.625-12.554h3.304l2.863 7.698.66 2.29c1.432-3.3 2.533-6.7 2.974-9.988h3.304c-.88 4.124-2.423 8.614-4.626 12.554h0zm17.842 0v-8.98c0-2.29-1.542-3.85-5.397-3.85-2.203 0-4.075.458-5.727 1.008l.44 1.65c1.322-.367 2.863-.733 4.515-.733 2.093 0 3.084.733 3.084 2.2v1.19h-1.1c-5.286 0-7.71 1.65-7.71 4.307 0 2.2 1.542 3.482 4.515 3.482 1.982 0 3.414-.733 4.736-1.65l.22 1.375h2.423zm-3.084-2.933c-1.1.825-2.313 1.283-3.414 1.283-1.432 0-2.313-.733-2.313-2.016s.88-2.2 4.405-2.2h1.322v2.932zm-40.42 5.04c-.88 1.1-2.203 1.924-3.854 2.383L0 78.534c1.1-.55 2.203-1.374 2.643-2.108.44-.64.55-1.558.55-3.666V58.465h3.304v14.112c0 2.84-.33 3.94-1.21 5.04h0z" fill="#f58219"/></g></symbol></svg>