<?xml version="1.0" encoding="utf-8"?>
<!-- Generator: Adobe Illustrator 19.2.1, SVG Export Plug-In . SVG Version: 6.00 Build 0)  -->
<svg version="1.1" xmlns="http://www.w3.org/2000/svg" xmlns:xlink="http://www.w3.org/1999/xlink" x="0px" y="0px"
	 viewBox="0 0 652 652" style="enable-background:new 0 0 652 652;" xml:space="preserve">
<style type="text/css">
	.st0{display:none;}
	.st1{display:inline;}
	.st2{fill:#0C0407;}
	.st3{fill:#35A8E1;}
</style>
<g id="Layer_1" class="st0">
	<g class="st1">
		<path class="st2" d="M240,670.9l1.6-0.1c0.1,0.6,0.3,1.2,0.5,1.6c0.3,0.4,0.7,0.7,1.3,1c0.6,0.3,1.2,0.4,2,0.4
			c0.7,0,1.2-0.1,1.7-0.3s0.9-0.5,1.1-0.8s0.4-0.7,0.4-1.1c0-0.4-0.1-0.8-0.4-1.1s-0.6-0.6-1.2-0.8c-0.3-0.1-1.1-0.3-2.3-0.6
			s-2-0.6-2.5-0.8c-0.6-0.3-1.1-0.7-1.4-1.2c-0.3-0.5-0.5-1-0.5-1.6c0-0.7,0.2-1.3,0.6-1.8s0.9-1,1.6-1.3s1.5-0.4,2.4-0.4
			c1,0,1.8,0.2,2.5,0.5c0.7,0.3,1.3,0.8,1.7,1.4s0.6,1.3,0.6,2l-1.6,0.1c-0.1-0.8-0.4-1.4-0.9-1.8c-0.5-0.4-1.3-0.6-2.2-0.6
			c-1,0-1.8,0.2-2.3,0.6c-0.5,0.4-0.7,0.8-0.7,1.4c0,0.5,0.2,0.8,0.5,1.1c0.3,0.3,1.2,0.6,2.6,0.9c1.4,0.3,2.3,0.6,2.9,0.8
			c0.8,0.3,1.3,0.8,1.7,1.3s0.5,1.1,0.5,1.8c0,0.7-0.2,1.3-0.6,1.9c-0.4,0.6-1,1.1-1.7,1.4c-0.7,0.3-1.6,0.5-2.5,0.5
			c-1.2,0-2.1-0.2-2.9-0.5c-0.8-0.3-1.4-0.9-1.9-1.5C240.3,672.6,240,671.8,240,670.9z"/>
		<path class="st2" d="M258.8,672.1l1.6,0.2c-0.3,1-0.7,1.7-1.4,2.2s-1.6,0.8-2.7,0.8c-1.4,0-2.4-0.4-3.2-1.3
			c-0.8-0.8-1.2-2-1.2-3.5c0-1.6,0.4-2.8,1.2-3.7s1.9-1.3,3.1-1.3c1.2,0,2.3,0.4,3.1,1.3s1.2,2,1.2,3.6c0,0.1,0,0.2,0,0.4h-7
			c0.1,1,0.3,1.8,0.9,2.4s1.2,0.8,2,0.8c0.6,0,1.1-0.2,1.5-0.5S258.6,672.7,258.8,672.1z M253.6,669.5h5.2c-0.1-0.8-0.3-1.4-0.6-1.8
			c-0.5-0.6-1.2-0.9-2-0.9c-0.7,0-1.3,0.2-1.8,0.7S253.6,668.7,253.6,669.5z"/>
		<path class="st2" d="M268.8,672.1l1.6,0.2c-0.3,1-0.7,1.7-1.4,2.2s-1.6,0.8-2.7,0.8c-1.4,0-2.4-0.4-3.2-1.3
			c-0.8-0.8-1.2-2-1.2-3.5c0-1.6,0.4-2.8,1.2-3.7s1.9-1.3,3.1-1.3c1.2,0,2.3,0.4,3.1,1.3s1.2,2,1.2,3.6c0,0.1,0,0.2,0,0.4h-7
			c0.1,1,0.3,1.8,0.9,2.4s1.2,0.8,2,0.8c0.6,0,1.1-0.2,1.5-0.5S268.6,672.7,268.8,672.1z M263.6,669.5h5.2c-0.1-0.8-0.3-1.4-0.6-1.8
			c-0.5-0.6-1.2-0.9-2-0.9c-0.7,0-1.3,0.2-1.8,0.7S263.7,668.7,263.6,669.5z"/>
		<path class="st2" d="M272.4,675.1v-12.9h1.6v7.3l3.7-3.8h2l-3.6,3.5l3.9,5.9h-2l-3.1-4.8l-1.1,1.1v3.7H272.4z"/>
		<path class="st2" d="M285.3,675.1l-5-12.9h1.8l3.3,9.4c0.3,0.8,0.5,1.5,0.7,2.1c0.2-0.7,0.4-1.4,0.7-2.1l3.5-9.4h1.7l-5,12.9
			H285.3z"/>
		<path class="st2" d="M298.8,672.1l1.6,0.2c-0.3,1-0.7,1.7-1.4,2.2s-1.6,0.8-2.7,0.8c-1.4,0-2.4-0.4-3.2-1.3
			c-0.8-0.8-1.2-2-1.2-3.5c0-1.6,0.4-2.8,1.2-3.7s1.9-1.3,3.1-1.3c1.2,0,2.3,0.4,3.1,1.3s1.2,2,1.2,3.6c0,0.1,0,0.2,0,0.4h-7
			c0.1,1,0.3,1.8,0.9,2.4s1.2,0.8,2,0.8c0.6,0,1.1-0.2,1.5-0.5S298.6,672.7,298.8,672.1z M293.6,669.5h5.2c-0.1-0.8-0.3-1.4-0.6-1.8
			c-0.5-0.6-1.2-0.9-2-0.9c-0.7,0-1.3,0.2-1.8,0.7S293.7,668.7,293.6,669.5z"/>
		<path class="st2" d="M308.5,671.7l1.6,0.2c-0.2,1.1-0.6,1.9-1.3,2.5c-0.7,0.6-1.6,0.9-2.6,0.9c-1.3,0-2.3-0.4-3.1-1.3
			c-0.8-0.8-1.2-2-1.2-3.6c0-1,0.2-1.9,0.5-2.6s0.8-1.3,1.5-1.7c0.7-0.4,1.4-0.6,2.2-0.6c1,0,1.8,0.3,2.5,0.8s1.1,1.2,1.2,2.2
			l-1.5,0.2c-0.1-0.6-0.4-1.1-0.8-1.4s-0.8-0.5-1.3-0.5c-0.8,0-1.4,0.3-1.9,0.9c-0.5,0.6-0.7,1.5-0.7,2.7c0,1.3,0.2,2.2,0.7,2.7
			s1.1,0.9,1.9,0.9c0.6,0,1.1-0.2,1.6-0.6S308.4,672.4,308.5,671.7z"/>
		<path class="st2" d="M314.9,673.7l0.2,1.4c-0.4,0.1-0.8,0.1-1.2,0.1c-0.6,0-1-0.1-1.3-0.3s-0.5-0.4-0.7-0.7s-0.2-0.9-0.2-1.9V667
			h-1.2v-1.2h1.2v-2.3l1.6-0.9v3.3h1.6v1.2h-1.6v5.5c0,0.5,0,0.7,0.1,0.9s0.1,0.2,0.3,0.3c0.1,0.1,0.3,0.1,0.5,0.1
			C314.4,673.7,314.6,673.7,314.9,673.7z"/>
		<path class="st2" d="M315.9,670.4c0-1.7,0.5-3,1.4-3.8c0.8-0.7,1.8-1,2.9-1c1.3,0,2.3,0.4,3.1,1.3s1.2,2,1.2,3.5
			c0,1.2-0.2,2.1-0.5,2.8c-0.4,0.7-0.9,1.2-1.6,1.6s-1.4,0.6-2.3,0.6c-1.3,0-2.4-0.4-3.2-1.3C316.3,673.2,315.9,672,315.9,670.4z
			 M317.5,670.4c0,1.2,0.3,2.1,0.8,2.7c0.5,0.6,1.2,0.9,2,0.9c0.8,0,1.4-0.3,2-0.9s0.8-1.5,0.8-2.7c0-1.2-0.3-2-0.8-2.6
			c-0.5-0.6-1.2-0.9-2-0.9c-0.8,0-1.4,0.3-2,0.9S317.5,669.2,317.5,670.4z"/>
		<path class="st2" d="M326.4,675.1v-9.3h1.4v1.4c0.4-0.7,0.7-1.1,1-1.3c0.3-0.2,0.6-0.3,1-0.3c0.5,0,1.1,0.2,1.6,0.5l-0.5,1.5
			c-0.4-0.2-0.8-0.3-1.2-0.3c-0.3,0-0.7,0.1-0.9,0.3s-0.5,0.5-0.6,0.9c-0.2,0.6-0.3,1.2-0.3,1.8v4.9H326.4z"/>
		<path class="st2" d="M332.6,675.1v-12.9h1.7v11.4h6.3v1.5H332.6z"/>
		<path class="st2" d="M341.9,670.4c0-1.7,0.5-3,1.4-3.8c0.8-0.7,1.8-1,2.9-1c1.3,0,2.3,0.4,3.1,1.3s1.2,2,1.2,3.5
			c0,1.2-0.2,2.1-0.5,2.8c-0.4,0.7-0.9,1.2-1.6,1.6s-1.4,0.6-2.3,0.6c-1.3,0-2.4-0.4-3.2-1.3C342.3,673.2,341.9,672,341.9,670.4z
			 M343.5,670.4c0,1.2,0.3,2.1,0.8,2.7c0.5,0.6,1.2,0.9,2,0.9c0.8,0,1.4-0.3,2-0.9s0.8-1.5,0.8-2.7c0-1.2-0.3-2-0.8-2.6
			c-0.5-0.6-1.2-0.9-2-0.9c-0.8,0-1.4,0.3-2,0.9S343.5,669.2,343.5,670.4z"/>
		<path class="st2" d="M352.2,675.8l1.5,0.2c0.1,0.5,0.2,0.8,0.5,1c0.4,0.3,0.9,0.4,1.6,0.4c0.7,0,1.3-0.1,1.7-0.4s0.7-0.7,0.8-1.2
			c0.1-0.3,0.1-1,0.1-2c-0.7,0.8-1.6,1.2-2.6,1.2c-1.3,0-2.3-0.5-3-1.4s-1.1-2-1.1-3.3c0-0.9,0.2-1.7,0.5-2.5
			c0.3-0.8,0.8-1.3,1.4-1.7s1.3-0.6,2.2-0.6c1.1,0,2,0.4,2.7,1.3v-1.1h1.5v8.1c0,1.5-0.1,2.5-0.4,3.1c-0.3,0.6-0.8,1.1-1.4,1.4
			c-0.6,0.4-1.4,0.5-2.4,0.5c-1.1,0-2-0.3-2.7-0.8C352.5,677.6,352.2,676.9,352.2,675.8z M353.5,670.2c0,1.2,0.2,2.1,0.7,2.7
			s1.1,0.8,1.8,0.8c0.7,0,1.3-0.3,1.8-0.8s0.7-1.4,0.7-2.6c0-1.1-0.3-2-0.8-2.6c-0.5-0.6-1.1-0.9-1.8-0.9c-0.7,0-1.3,0.3-1.8,0.9
			C353.7,668.3,353.5,669.1,353.5,670.2z"/>
		<path class="st2" d="M361.9,670.4c0-1.7,0.5-3,1.4-3.8c0.8-0.7,1.8-1,2.9-1c1.3,0,2.3,0.4,3.1,1.3s1.2,2,1.2,3.5
			c0,1.2-0.2,2.1-0.5,2.8c-0.4,0.7-0.9,1.2-1.6,1.6s-1.4,0.6-2.3,0.6c-1.3,0-2.4-0.4-3.2-1.3C362.3,673.2,361.9,672,361.9,670.4z
			 M363.5,670.4c0,1.2,0.3,2.1,0.8,2.7c0.5,0.6,1.2,0.9,2,0.9c0.8,0,1.4-0.3,2-0.9s0.8-1.5,0.8-2.7c0-1.2-0.3-2-0.8-2.6
			c-0.5-0.6-1.2-0.9-2-0.9c-0.8,0-1.4,0.3-2,0.9S363.5,669.2,363.5,670.4z"/>
		<path class="st2" d="M372.9,675.1v-1.8h1.8v1.8H372.9z"/>
		<path class="st2" d="M386.9,670.6l1.7,0.4c-0.4,1.4-1,2.5-1.9,3.2s-2.1,1.1-3.4,1.1c-1.4,0-2.5-0.3-3.4-0.8
			c-0.9-0.6-1.5-1.4-2-2.5c-0.5-1.1-0.7-2.2-0.7-3.5c0-1.3,0.3-2.5,0.8-3.5c0.5-1,1.2-1.8,2.2-2.3c0.9-0.5,2-0.8,3.1-0.8
			c1.3,0,2.4,0.3,3.3,1s1.5,1.6,1.8,2.8l-1.7,0.4c-0.3-0.9-0.7-1.6-1.3-2s-1.3-0.6-2.1-0.6c-1,0-1.8,0.2-2.5,0.7
			c-0.7,0.5-1.1,1.1-1.4,1.9c-0.3,0.8-0.4,1.6-0.4,2.5c0,1.1,0.2,2.1,0.5,2.9c0.3,0.8,0.8,1.4,1.5,1.8s1.4,0.6,2.2,0.6
			c1,0,1.8-0.3,2.4-0.8S386.7,671.6,386.9,670.6z"/>
		<path class="st2" d="M389.9,670.4c0-1.7,0.5-3,1.4-3.8c0.8-0.7,1.8-1,2.9-1c1.3,0,2.3,0.4,3.1,1.3s1.2,2,1.2,3.5
			c0,1.2-0.2,2.1-0.5,2.8c-0.4,0.7-0.9,1.2-1.6,1.6s-1.4,0.6-2.3,0.6c-1.3,0-2.4-0.4-3.2-1.3C390.3,673.2,389.9,672,389.9,670.4z
			 M391.5,670.4c0,1.2,0.3,2.1,0.8,2.7c0.5,0.6,1.2,0.9,2,0.9c0.8,0,1.4-0.3,2-0.9s0.8-1.5,0.8-2.7c0-1.2-0.3-2-0.8-2.6
			c-0.5-0.6-1.2-0.9-2-0.9c-0.8,0-1.4,0.3-2,0.9S391.5,669.2,391.5,670.4z"/>
		<path class="st2" d="M400.5,675.1v-9.3h1.4v1.3c0.3-0.5,0.7-0.8,1.2-1.1s1-0.4,1.7-0.4c0.7,0,1.3,0.1,1.7,0.4
			c0.4,0.3,0.8,0.7,0.9,1.2c0.7-1.1,1.7-1.6,2.9-1.6c0.9,0,1.6,0.3,2.1,0.8s0.7,1.3,0.7,2.4v6.4h-1.6v-5.9c0-0.6-0.1-1.1-0.2-1.4
			c-0.1-0.3-0.3-0.5-0.6-0.7s-0.6-0.3-0.9-0.3c-0.7,0-1.2,0.2-1.6,0.7c-0.4,0.4-0.7,1.1-0.7,2.1v5.4h-1.6V669c0-0.7-0.1-1.2-0.4-1.6
			s-0.7-0.5-1.3-0.5c-0.4,0-0.9,0.1-1.2,0.4c-0.4,0.2-0.7,0.6-0.8,1s-0.3,1.1-0.3,2v4.8H400.5z"/>
	</g>
</g>
<g id="Layer_2">
	<g>
		<path class="st3" d="M99,247c35-4.9,69.9-9.7,104.9-14.5c-0.1,30.8,0,61.6,0,92.4c-35,0-70,0-105,0C99,299,98.8,273,99,247"/>
		<path class="st3" d="M600.7,247.6c3.6-4.8,10.8-6,15.7-2.6c-3.8,1-8.1,0.8-11.6,2.7c-3,4.2-1.4,9.8-1.9,14.7
			c7,0.1,13.9,0,20.9,0.1c0.1-5.1,0.2-10.1,0.2-15.2l3.7,0.1c0,5,0,10,0,14.9c3.7,0.1,7.3,0.1,11,0.2v2.8c-3.7,0-7.4,0-11,0.1
			c0.1,10.8,0,21.5,0,32.3c0.3,2.9-0.7,6.8,2,8.8c2.5,2,6,1.5,9,2.1c0,0.7,0,2.1,0,2.7c-5.6,0.1-13.5-1.1-14.4-7.9
			c-0.7-12.7-0.1-25.4-0.2-38.1c-7,0-14,0-21,0c0,15.4,0.1,30.8-0.1,46.2c-0.9-0.3-2.5-0.9-3.4-1.1c-0.7-14.9-0.2-30-0.2-44.9
			c-3.4-0.6-8.3,1.2-10.2-2.7c3.3-0.2,6.7-0.4,10-0.5C599.4,257.4,598.7,252.2,600.7,247.6"/>
		<path class="st3" d="M257.4,243.5c1.5,0.3,4.4,0.9,5.9,1.2c10.3,20.1,18.8,41.2,28.5,61.6c10.8-19.9,18.8-41.3,28.5-61.8
			c2.1,0,4.2-0.1,6.3-0.1c0,22.2,0,44.4,0,66.7c-1.1-0.1-3.4-0.3-4.5-0.4c0.1-20.5,0.3-40.9-0.1-61.4c-9.8,20.3-18.4,41.2-27.8,61.6
			c-1,0-3.1,0-4.1,0c-6.3-13.6-12.5-27.3-18.7-41c-3-6.5-5.3-13.4-9.7-19.1c-0.7,20-0.2,40-0.3,60.1c-1,0-3.1,0.1-4.1,0.2
			C257.4,288.5,257.3,266,257.4,243.5"/>
		<path class="st3" d="M339.9,244.3c0.9,0,2.7,0.1,3.5,0.1v8.9c-0.9,0-2.7,0-3.6,0C339.8,250.3,339.9,247.3,339.9,244.3"/>
		<path class="st3" d="M15.1,258.8c26.6-3.8,53.3-7,79.9-11.4c0.2,25.9,0,51.7,0.1,77.6c-26.6,0.2-53.2-0.3-79.8,0.3
			C15.1,303.1,15.3,280.9,15.1,258.8"/>
		<path class="st3" d="M360.4,267.8c11.1-11.6,34.7-8.1,38.9,8.5c-0.8,0.3-2.5,0.9-3.4,1.2c-3-16-27-18-35-5.2
			c-5.7,8.8-5.3,21.5,0.7,30c7.8,10,27.2,9.2,32.2-3.3c1.2-2.5,2.2-5.8,5.8-5.1c-2.5,13.2-16.8,21.2-29.4,17.2
			C352,306.8,348,280.3,360.4,267.8"/>
		<path class="st3" d="M339.9,262.3l3.6,0.1c0,16.1,0,32.3,0,48.4l-3.5,0.2C339.8,294.8,339.8,278.6,339.9,262.3"/>
		<path class="st3" d="M408.9,262.4c0.9,0,2.7,0,3.7,0c0.1,3,0.1,5.9,0.2,8.9c5.4-4.7,11.8-10,19.5-8.7c0.4,0.5,1.3,1.5,1.7,2.1
			c-8.9,0.4-18.8,5.1-20.8,14.6c-1.3,10.8,0.1,21.8-0.8,32.6c-0.9-0.5-2.5-1.5-3.3-1.9C408.5,294.1,409,278.3,408.9,262.4"/>
		<path class="st3" d="M451.9,264.9c-17.7,5.7-18.8,34.6-2.4,42.6c7.2,3,16.5,2.3,22.1-3.5c8.6-8.8,8.8-24.3,1-33.6
			C467.6,264.4,459.1,262.9,451.9,264.9 M449.9,262.5c8.5-3,18.7-1,25,5.4c10,10.7,9.3,29.8-2,39.2c-10.5,8.5-28.3,5.8-34.9-6.3
			C430,288,434.7,267.5,449.9,262.5"/>
		<path class="st3" d="M497.2,264.3c8.1-4.2,18.7-4.5,26.6,0.2c4.5,2.4,5.4,7.9,6.7,12.3c-5.8,0.1-4.5-7.5-8.8-9.9
			c-6.5-4-15.5-3.8-22.1-0.3c-5.4,2.8-5.3,11.4,0.2,14.1c8.5,4.4,19,3.2,27.2,8.3c4.8,3,5.6,9.7,3.7,14.6c-2.5,5.5-8.9,7.3-14.3,8.2
			c-8.5,1.3-18.6-0.6-23.7-8.1c-1.9-3-4.2-7.6,0.1-9.5c1.6,3.9,2.5,8.6,6.1,11.3c6.6,5,15.9,4.5,23.3,1.9c6.5-2.1,8.1-12.1,2.2-15.8
			c-8.8-4.9-20.1-3.2-28.4-9.1C489.9,278,490.6,267.8,497.2,264.3"/>
		<path class="st3" d="M560.2,264.2c-15.9,1.2-21.8,21.5-15.3,34.1c4.5,10.9,19.8,14.1,29.1,7.4c9.8-7.5,11.1-22.8,4.8-33
			C575,266.4,567.4,263.2,560.2,264.2 M552.8,263.1c9.2-4,21-1.9,27.6,5.9c8.3,10.3,7.9,26.5-1,36.2c-8.4,8.6-23.5,9.3-32.4,1.1
			C534,295,536.4,270,552.8,263.1"/>
		<path class="st3" d="M15.3,328.8c26.6,0,53.2,0,79.8,0c0.1,25.7,0,51.4,0.1,77.2c-26.7-2.4-53.2-7.4-79.8-10.6
			C15.2,373.1,15.2,351,15.3,328.8"/>
		<path class="st3" d="M98.9,406.8c0.2-26-0.2-52.1,0.2-78.1c34.9,0.2,69.9-0.1,104.8,0.1c0,30.9,0,61.7,0,92.6
			C168.8,416.9,133.8,411.8,98.9,406.8"/>
		<path class="st3" d="M271.2,375.1c8.4,0,16.7,0,25.1,0c-4-10.5-7.8-21.1-12.3-31.3C279.2,353.9,275.7,364.7,271.2,375.1
			 M278.9,335.8c3.6,0,7.1,0.1,10.7,0.2c9.2,22.3,18.5,44.6,28.3,66.7c-3.5,0-7-0.1-10.5-0.1c-2.6-6.7-5.2-13.3-7.8-20
			c-10.5,0.1-20.9,0-31.4,0.1c-2.7,6.7-5.4,13.3-8.1,20c-3.2,0-6.3,0-9.4,0C260.1,380.4,269.4,358,278.9,335.8"/>
		<path class="st3" d="M436.6,363.6c4.9-6.1,11.2-11.3,19.5-11.1c0,2.7,0,5.4,0.1,8.1c-7.2,0.3-15.6,3.1-17.7,10.9
			c-2.4,10.2-0.7,20.7-1.2,31.1c-2.9,0-5.8,0-8.6,0c-0.1-16.2-0.1-32.5,0-48.7h8V363.6z"/>
		<path class="st3" d="M466.4,373.9c10.7,0.2,21.3,0.2,32,0c-1.7-8-8.4-15.7-17.4-14.2C472.9,359.3,468,366.9,466.4,373.9
			 M464.1,361.5c8.4-10.6,26.4-11.7,35.6-1.5c5.1,5.7,6.6,13.4,6.8,20.8c-13.4,0.1-26.7-0.1-40.1,0.1c1,4,1.3,8.6,4.6,11.5
			c7.8,7.8,23.2,6,27.2-4.9c2,0.1,6,0.1,7.9,0.2c-4.7,16.9-28.2,20.8-40.3,9.8C456.5,388.1,455.6,371.6,464.1,361.5"/>
		<path class="st3" d="M320.8,354c14-0.1,27.9-0.2,41.9,0.1c-0.3,5.4-4.5,9-7.8,12.9c-8.3,9.5-16.7,19-24.9,28.6
			c11.1,2.1,22.4-1.2,33.5,1.2c0,1.4,0.1,4.3,0.1,5.8c-14.7,0-29.5,0-44.2,0v-6.1c10.3-11.8,21.1-23.1,30.9-35.3
			c-9.5-0.8-19.1-0.1-28.6-0.7C321.4,359,321,355.7,320.8,354"/>
		<path class="st3" d="M371.3,353.9c2.8,0,5.7,0,8.6,0.1c0.2,12-0.6,24.1,0.3,36.1c4.5,12.9,26.4,6.9,26.4-6c0.3-10,0-20.1,0.1-30.1
			c2.1,0,6.2,0,8.3,0c0,16.2,0,32.5,0,48.7c-1.9,0-5.7,0-7.6,0c-0.2-1.6-0.5-4.9-0.7-6.6c-6.8,7.7-18.3,9.8-27.5,5.5
			c-5.8-2.6-7.7-9.4-7.7-15.2C371.1,375.5,371.4,364.7,371.3,353.9"/>
	</g>
</g>
</svg>
